<svg xmlns="http://www.w3.org/2000/svg" viewBox="0 0 512 512" role="img" aria-labelledby="title desc">
  <title id="title">QuantSage logo</title>
  <desc id="desc">Abstract AI intelligence, compass and rising candlestick chart mark.</desc>
  <defs>
    <linearGradient id="g" x1="72" y1="432" x2="438" y2="84" gradientUnits="userSpaceOnUse">
      <stop offset="0" stop-color="#2f81f7"/>
      <stop offset="1" stop-color="#39d0d8"/>
    </linearGradient>
    <radialGradient id="bg" cx="50%" cy="38%" r="78%">
      <stop offset="0" stop-color="#111a28"/>
      <stop offset="1" stop-color="#0d1117"/>
    </radialGradient>
    <filter id="glow" x="-30%" y="-30%" width="160%" height="160%">
      <feGaussianBlur stdDeviation="6" result="b"/>
      <feMerge><feMergeNode in="b"/><feMergeNode in="SourceGraphic"/></feMerge>
    </filter>
  </defs>
  <rect width="512" height="512" rx="108" fill="url(#bg)"/>
  <g fill="none" stroke="url(#g)" stroke-linecap="round" stroke-linejoin="round">
    <path d="M140 337c-18-15-28-36-28-61 0-41 28-76 68-86m164 0c40 10 68 45 68 86 0 25-10 46-28 61" stroke-width="20" opacity=".94"/>
    <path d="M159 392c-21-9-37-30-37-55 0-20 10-38 25-48m31 113c-24 0-44-20-44-44 0-16 9-31 22-38m223 72c21-9 37-30 37-55 0-20-10-38-25-48m-31 113c24 0 44-20 44-44 0-16-9-31-22-38" stroke-width="18" opacity=".92"/>
    <path d="M252 146v177M168 356h176" stroke-width="16" filter="url(#glow)"/>
    <circle cx="256" cy="356" r="32" stroke-width="16" fill="#0d1117"/>
    <path d="M256 170 226 313l30-20 30 20-30-143ZM256 485l-30-110 30 20 30-20-30 110ZM130 356l99-18-20 18 20 18-99-18ZM382 356l-99-18 20 18-20 18 99-18Z" fill="url(#g)" stroke="none"/>
    <path d="M178 255v-43M178 212h0M178 255h0M216 248v-77M216 171h0M216 248h0M297 230v-83M297 147h0M297 230h0M335 204V97M335 97h0M335 204h0" stroke-width="9"/>
    <rect x="161" y="214" width="34" height="45" rx="5" fill="url(#g)" stroke="none"/>
    <rect x="199" y="172" width="34" height="78" rx="5" fill="url(#g)" stroke="none"/>
    <rect x="280" y="148" width="34" height="83" rx="5" fill="url(#g)" stroke="none"/>
    <rect x="318" y="99" width="34" height="106" rx="5" fill="url(#g)" stroke="none"/>
    <path d="M152 157c47-64 119-91 205-81m0 0-22-13m22 13-13 22" stroke-width="13" filter="url(#glow)"/>
  </g>
</svg>